<?xml version="1.0" encoding="utf-8"?>
<!-- Generator: Adobe Illustrator 27.0.1, SVG Export Plug-In . SVG Version: 6.00 Build 0)  -->
<svg version="1.1" id="Layer_1" xmlns="http://www.w3.org/2000/svg" xmlns:xlink="http://www.w3.org/1999/xlink" x="0px" y="0px"
	 viewBox="0 0 4060 2900" style="enable-background:new 0 0 4060 2900;" xml:space="preserve">
<style type="text/css">
	.st0{fill-rule:evenodd;clip-rule:evenodd;fill:#EAB400;}
</style>
<path class="st0" d="M2496.19,222.32c13.55-47.18,1.35-106.79-16.08-154.45c-4.61-12.65-72.97-4.82-111.58-1.07
	c-19.36,1.84-37.84,15.04-56.25,24.05c-162.16,79.25-319.32,172.04-487.91,233.45c-112.82,41.12-241.92,41.64-298.62,170.87
	c-25.4,57.97-38.02,121.78-54.11,183.5c-64.26,247.28-127.12,494.91-191.63,742.15c-19.7,75.58-47.62,149.31-62.71,225.7
	c-9.13,46.02-19.7,114.29,4.53,138.73c30.51,30.78,98.79,43.38,145.65,35.08c145.64-25.8,288.9-65.26,435.39-99.95
	c1.17,12.16,4.95,22.67,2.6,31.52c-78.5,296.23-156.08,592.78-237.69,888.13c-21.96,79.51-20.57,145.59,78.54,204.36
	c29.38-34.02,71.75-69.96,97.33-115.38c69.83-124.11,125.31-256.68,199.55-377.89c230.01-375.69,469.05-745.93,696.21-1123.31
	c29.09-48.32,21.67-130.51,3.56-188.44c-5.74-18.23-103.82-19.55-155.67-9c-125.52,25.53-248.74,62.57-384.88,98.12
	c8.72-32.95,9.56-47.36,15.98-58.73C2271.34,799.25,2410.15,522.04,2496.19,222.32z M1911.77,1295.29
	c30.89,28.96,100.56,36.77,146.73,25.45c134.08-32.78,264.73-79.68,415.49-101.69c-209.32,345.54-418.63,691.03-627.94,1036.5
	c-11.94-5.61-23.88-11.18-35.83-16.81c37.8-114.95,78.59-229.05,112.41-345.24c23.82-81.64,38.48-166.01,56.84-249.29
	c16.13-73.34-5.53-127.23-57-142.97c-188.85,55.79-359.33,106.16-563.56,166.51c60.01-220.62,110.4-407.08,161.53-593.4
	c37.05-135,77.65-269.07,111.31-404.86c11.48-46.45,21.75-75.46,78.38-68.99c24.76,2.85,54.73-8.22,77.16-21.63
	c148.16-88.62,294.68-179.89,442.34-269.37c16.26-9.86,36.17-13.7,81.43-30.18c-40.94,119.19-66.05,222.18-110.64,315.87
	c-90.25,189.51-194.18,372.47-285.01,561.74C1896.17,1196.93,1888.76,1273.7,1911.77,1295.29z"/>
</svg>
