<?xml version="1.0" encoding="utf-8"?>
<!-- Generator: Adobe Illustrator 27.0.1, SVG Export Plug-In . SVG Version: 6.00 Build 0)  -->
<svg version="1.1" id="Layer_1" xmlns="http://www.w3.org/2000/svg" xmlns:xlink="http://www.w3.org/1999/xlink" x="0px" y="0px"
	 viewBox="0 0 4060 2900" style="enable-background:new 0 0 4060 2900;" xml:space="preserve">
<style type="text/css">
	.st0{fill-rule:evenodd;clip-rule:evenodd;}
</style>
<path class="st0" d="M484.14,1448.3c7.87,129.03,75.28,236.08,145.85,338.12c122.97,177.79,291.12,304.72,480.81,404.7
	c63.03,33.21,123.95,71.62,189.65,98.33c113.72,46.23,231.04,83.62,345.37,128.52c22.01,8.64,37.64,34.35,55.28,53.12
	c30.51,32.36,59.33,66.41,90.67,97.98c38.11,38.37,91.95,58.19,115.43,115.29c11.66,28.35,44.77,52.42,73.81,67.89
	c39.37,20.99,84.72,30.34,126.46,47.31c63.64,25.82,102.39,19.95,147.01-34.04c34.11-41.36,62.39-87.47,93.8-131.09
	c45.9-63.73,91.68-127.51,138.71-190.38c15.96-21.3,10.33-55.46-14.43-68.9c-37.1-20.09-88.58,5.73-95.07,47.55
	c-1.89,12.2-1.38,26.41-7.58,36.07c-46.71,73.07-93.06,146.44-143.01,217.29c-46.67,66.17-70.67,66.86-130.7,16.08
	c74.68-107.99,150.27-214.83,222.4-323.89c13.69-20.71,17.04-50.43,17.83-76.22c0.26-8.06-27.07-26.6-35.48-23.44
	c-20.29,7.52-42.7,21.38-53.9,39.22c-46.6,74.16-87.16,152.17-134.46,225.89c-23.25,36.23-56.63,65.94-84.9,99.09
	c-20.88,24.45-38.4,15.46-53.98-5.15c-7.45-9.86-12.27-21.7-19.67-35.21c17.62-9.66,32.17-15.81,44.69-24.81
	c128.54-92.23,200.98-228.31,275.17-361.54c10.75-19.28-0.54-67.66-18.46-83.35c-119.21-104.26-183.28-234.77-190.64-390.43
	c-4.24-89.54,8.67-179.78,9.15-269.74c0.88-167.08-46.27-323.68-114.56-474.17c-19.36-42.64-44.53-83.7-72.89-121.02
	c-66.87-88-167.88-127.3-265.48-164.08c-83.31-31.41-174.72-62.72-261.35-59.73c-219.17,7.6-424.78,56.53-602.38,208.39
	C569.4,1012.65,469.11,1201.77,484.14,1448.3z M1998.02,2466.9c-23.15,18.26-45.31,38.48-70.65,53.12
	c-39.85,23.06-47.28,19.67-76.88-19.79c153.47-50.36,113.55-48.18,286.06-237.73C2101.72,2338.1,2065.98,2413.15,1998.02,2466.9z
	 M1546.44,1947.05c-33.77-74.78-70.77-148.23-110.2-220.2c-46.56-84.99-72.44-174.79-68.66-278c27.11,29.36,55.98,57.32,80.97,88.37
	c70.83,88.06,138.63,178.56,210.25,265.97c76.26,93,155.3,183.74,233.64,274.99c29.17,34,57.7,69.05,90.66,99.04
	c20.58,18.74,48.95,28.9,80.21,46.46c-27.96,34.94-59.49,74.32-91.15,113.88c-104.12-100.87-217.14-171.59-352.95-202.87
	c-19.8-4.59-38.26-14.61-57.66-21.23c-67.14-22.86-135.51-42.57-201.27-68.81c-51.74-20.64-104.39-43.54-149.26-75.71
	c-60.52-43.39-115.93-94.64-169.44-146.71c-21.69-21.11-32.68-53.24-48.51-80.35c3.51-0.74,7.01-1.48,10.52-2.26
	c128.42,66.4,257.32,131.91,384.92,199.88c30.28,16.12,54.38,43.96,84.81,59.66c19.59,10.09,45.55,7.87,68.66,11.14
	C1543.95,1989.03,1554.12,1964.03,1546.44,1947.05z M738.64,959.91c46.77-43.62,95.03-89.59,150.88-118.56
	c76.14-39.49,158.59-69.26,241.23-93.19c130.02-37.68,261.72-41.65,392.15,5.12c137.15,49.17,271.76,105.05,345.12,240.74
	c38.79,71.78,67.59,151.35,86.66,230.79c20.02,83.43,29.42,170.83,31.58,256.81c2.02,80.74-19.24,162.21-15.73,242.75
	c3.11,72.02,18.03,146.02,42.7,213.7c20.77,57.09,64.04,105.7,94.87,159.52c6.07,10.59,0.88,27.62,0.88,39.49
	c-23.04-14.76-42.48-25.12-59.55-38.51c-60.38-47.41-123.01-92.62-179-144.85c-52.38-48.92-98.88-104.46-145.31-159.37
	c-44.44-52.5-85.41-107.92-127.94-162.06c-42.49-54.09-83.97-109.01-127.99-161.82c-26.68-32.02-54.66-64.18-87.42-89.27
	c-15.77-12.07-48.39-16.78-65.28-8.45c-15.83,7.83-30.79,38.09-29.19,57.07c8.86,105.31,31.72,207.35,83.64,301.6
	c26.19,47.51,46.27,98.45,69.09,147.84c-2.92,5.22-5.84,10.43-8.76,15.66c-88.16-46.82-176.75-92.88-264.33-140.83
	c-40.31-22.04-78.75-47.59-117.79-71.97c-54.27-33.88-92.15-37.31-116.12-9.9c-22.78,26.06-21.52,93.2,8.65,128.45
	c44.05,51.49,88.76,103.56,139.86,147.61c96.6,83.34,210.66,131.05,331.43,175.49c137.59,50.58,287.06,80.84,406.84,175.25
	c27.82,21.93,64.37,36.15,65.07,80.7c0.08,4.9,11.57,9.7,21.38,17.37c-45.76,18.03-88.02,34.66-133.7,3.31
	c-132.63-90.97-288.44-126.77-435.83-182.85c-139.84-53.28-268.32-127.7-388.43-216.81c-93.84-69.64-181.76-145.54-249.47-241.74
	c-73.82-104.88-138.28-216.37-143.36-347.4C548.64,1235.65,608.24,1081.58,738.64,959.91z"/>
<path class="st0" d="M412.13,594.87c12.39,8.76,33.38,5.37,50.39,7.6c-1.93-14.5,1.52-34.16-6.66-42.63
	c-57.33-59.38-114.15-119.88-176.97-173.15c-49.6-42.07-75.99-29.23-99.31,37.49c15.38,10.35,31.54,20.24,46.66,31.58
	C288.17,502.2,348.96,550.18,412.13,594.87z"/>
<path class="st0" d="M893.74,401.12c-39.96-88.94-78.03-177.48-120.39-263.92c-6.62-13.55-36.26-28.08-49.11-23.78
	c-26.33,8.78-42.76,30.24-23.49,63.29c39.72,68.08,79.14,136.51,114.78,206.76C832.36,416.65,850.91,425.41,893.74,401.12z"/>
<path class="st0" d="M1239.35,75.11c-5.57-27.6-27.79-41.24-52.5-25.53c-15.05,9.56-33.09,33.92-30.61,48.38
	c12.62,73.98,30.67,147.09,49.15,219.94c2.45,9.64,18.07,22.51,27.79,22.69c56.26,1.01,30.34-41.94,38.65-81.24
	C1262.5,205.49,1252.46,139.98,1239.35,75.11z"/>
<path class="st0" d="M75.13,842.61c57.43,21.17,116.88,37.28,176.31,52.23c12.29,3.08,36.57-3.69,40.02-12.19
	c5.11-12.56,1.89-39.9-6.96-44.98C224.18,802.94,161.47,772.4,93.3,737.34c-25.76,24.65-49.28,39.34-58.88,60.36
	C30.89,805.43,57.33,836.05,75.13,842.61z"/>
<path class="st0" d="M1661.16,318.14c18.4-54.66,34.23-110.53,45.35-167.08c2.63-13.33-16.52-43.91-25.51-43.87
	c-18.58,0.12-49.5,11.88-53.43,25.26c-15.87,54.09-23.43,110.63-36.14,177.25c6.95,7.3,16.8,26.09,30.18,29.09
	C1633.19,341.39,1657.52,328.98,1661.16,318.14z"/>
</svg>
