<?xml version="1.0" encoding="utf-8"?>
<!-- Generator: Adobe Illustrator 27.0.1, SVG Export Plug-In . SVG Version: 6.00 Build 0)  -->
<svg version="1.1" id="Layer_1" xmlns="http://www.w3.org/2000/svg" xmlns:xlink="http://www.w3.org/1999/xlink" x="0px" y="0px"
	 viewBox="0 0 2100 2100" style="enable-background:new 0 0 2100 2100;" xml:space="preserve">
<style type="text/css">
	.st0{fill-rule:evenodd;clip-rule:evenodd;}
</style>
<g>
	<path class="st0" d="M1344.78,1779.62c-74.61,30.37-154.98,49.74-239.02,55.76V2071c82.73-4.45,162.84-19.11,239.02-42.15V1779.62z
		 M1105.76,264.62V858.1v239.02v478.3h239.02v-478.3h247.92h241.11c-12.04,204.46-102.36,387.98-241.11,521.23v297.14
		c274.62-173.31,460.76-473.59,476.47-818.37c0.79-15.71,1.05-31.42,1.05-47.12c0-65.45-6.28-129.59-18.06-191.9
		c-53.67-283-224.1-524.9-459.45-673.34v296.88c105.24,100.79,182.47,230.64,218.86,376.46H1592.7h-247.92V320.38V71.15
		C1268.6,48.11,1188.49,33.71,1105.76,29V264.62z"/>
	<path class="st0" d="M994.24,1540.6v34.82H755.22v-332.74v-145.56v-236.4v-2.62V707.05l-61.52,76.97l-59.43,74.09l-93.72,116.76
		L447.09,858.1l-59.43-74.09l-50.79-63.35c-20.16,43.72-36.39,89.8-48.43,137.44c-5.5,21.73-9.95,43.98-13.61,66.5
		c-6.54,40.84-9.95,82.73-9.95,125.4c0,15.71,0.52,31.42,1.57,47.12c3.67,62.31,14.4,122.52,31.68,180.11
		c68.85,228.55,238.49,413.11,457.09,502.38c74.61,30.37,154.98,49.74,239.02,55.76V2071c-82.73-4.45-162.57-19.11-239.02-42.15
		c-276.72-84.04-503.96-282.21-626.74-539.82c-40.84-85.87-69.9-178.28-85.61-275.15c-6.02-38.22-10.21-77.23-12.04-116.76
		c-0.52-15.71-1.05-31.42-1.05-47.12c0-65.45,6.28-129.59,18.06-191.9c23.04-121.21,67.28-234.83,129.06-336.93
		c42.67-70.42,93.46-135.09,151.32-193.2l148.18,185.09l64.14,79.85l214.67-267.55l5.76-7.33L992.67,29c0.52,0,0.79,0,1.05,0
		l0.52,0.26v235.35v144.51V858.1v239.02v61.52V1540.6z"/>
</g>
</svg>
