<?xml version="1.0" encoding="utf-8"?>
<!-- Generator: Adobe Illustrator 27.0.1, SVG Export Plug-In . SVG Version: 6.00 Build 0)  -->
<svg version="1.1" id="Layer_1" xmlns="http://www.w3.org/2000/svg" xmlns:xlink="http://www.w3.org/1999/xlink" x="0px" y="0px"
	 viewBox="0 0 4060 2900" style="enable-background:new 0 0 4060 2900;" xml:space="preserve">
<style type="text/css">
	.st0{fill-rule:evenodd;clip-rule:evenodd;fill:#4254D3;}
</style>
<path class="st0" d="M883.74,960.55c-107.65,149.76-141.78,323.79-122.6,505.26c6.83,65.22-2.19,114.7-53.19,156.25
	c-57.79,47.02-115.12,94.71-170.93,144.04c-158.5,140.21-343.9,253.74-432.63,461.81c-36.06,84.45-3.18,204.03,72.51,258.84
	c129.73,93.88,275.76,75.61,412.76,56.65c189.54-26.24,374.36-85.02,562.44-124.02c36.61-7.56,85.85,0.63,117.17,20.53
	c149.61,94.94,298.04,190.46,472.78,234.48c51.43,12.98,101.94,29.76,150.26,44.01c166.12-26.65,328.79-36.88,481.73-81.05
	c229.27-66.17,430.88-177.13,590.8-372.18c98.97-120.65,156.18-250.75,202.39-389.89c56.73-170.51,49.26-347.65,25.47-524.32
	c-2.26-16.78,13.63-41.55,28.36-54.2c225.96-194.14,446.96-393.32,629.38-630.54c118.6-154.24,97.63-311.08-106.58-371.9
	c-173.1-51.56-350.32-48.04-517.36,11.78c-217.7,77.98-428.06,176.6-642.23,264.85c-17,6.98-40.84,8.61-57.84,2.47
	c-152.94-55.38-303.9-116.3-457.9-168.42c-59.75-20.24-129.72-41.54-188.27-29.45C1483.08,457.39,1128.67,619.6,883.74,960.55z
	 M363.56,2414.09c-113.58-14.81-148.29-75.34-82.19-179.17c72.03-113.38,174.6-208.04,268.13-306.76
	c45.09-47.56,98.2-88.32,151.26-127.3c32.1-23.6,68.63-60.21,105.18,3.07c94.52,163.7,192.43,325.44,293.53,495.67
	C864.77,2357.01,624.42,2448.1,363.56,2414.09z M2538.55,2413.53c-379.6,201.47-880.18,170.72-1151.27-68.29
	c590.31-234.23,1156.92-497.16,1656.15-887.02C3077.15,1864.77,2888.38,2227.82,2538.55,2413.53z M3163.99,486.07
	c133.04-58.06,267.57-121.42,420.57-94.53c50.24,8.81,105.25,11.25,147.58,35.16c22.51,12.71,41.12,74.89,29.2,97.99
	c-39.79,76.89-85.77,154.1-144.68,216.88c-144.19,153.72-296.85,299.34-461.58,463.65c-77.65-242.29-246.12-366.65-442.93-501.29
	C2875.26,624.68,3017.34,550.09,3163.99,486.07z M1232.45,775.51c99.53-67.66,204.92-127.2,310.51-185.12
	c48.9-26.79,104.69-41.15,157.32-61.16c1.77,6.17,3.52,12.38,5.29,18.55c53.32-4.05,106.95-5.78,159.98-12.61
	c156.05-20.12,293.46,52.93,438.01,88.14c75.13,18.31,150.46,45.57,188.57,129.22c10.15,22.4,57.49,47.35,79.7,41.35
	c68.5-18.59,100.18,27.44,141.38,61.11c127.11,103.88,249.51,209.73,296.15,378.27c12.56,45.49,10.85,71.7-25.91,104.11
	c-254.36,224.27-551.15,383.93-847.01,540.65c-214.11,113.36-454.23,177.59-668.33,290.98c-146.89,77.82-219.26,54.26-319.5-72.58
	c-134.38-170.01-227.71-346.08-233.14-563.13c-2.68-109.44-11.64-221.78,8.19-327.97C958.59,1018.32,1078.23,880.34,1232.45,775.51z
	"/>
</svg>
