<?xml version="1.0" encoding="utf-8"?>
<!-- Generator: Adobe Illustrator 27.0.1, SVG Export Plug-In . SVG Version: 6.00 Build 0)  -->
<svg version="1.1" id="Layer_1" xmlns="http://www.w3.org/2000/svg" xmlns:xlink="http://www.w3.org/1999/xlink" x="0px" y="0px"
	 viewBox="0 0 4060 2900" style="enable-background:new 0 0 4060 2900;" xml:space="preserve">
<style type="text/css">
	.st0{fill-rule:evenodd;clip-rule:evenodd;fill:#D43500;}
</style>
<path class="st0" d="M3099.66,688.76c206.11,48.49,413.25,93.29,617.48,148.7c69.16,18.78,149.56,30.56,193.24,104.86
	c5.31,9.02,32.49,14.77,42.28,9.26c14.19-8.04,29.49-27.15,30.72-42.63c3.87-48.61,14.37-102.49-1.58-145.49
	c-24.51-66.01-89.25-12.71-135.19-25.27c-75.67-20.75-155.06-27.61-231.41-46.26c-126.74-31-252.02-67.9-378.5-100.08
	c-72.52-18.41-146.31-45.86-219.22-44.98c-88.48,1.12-129.77,89.71-87.78,157.08c42.01,67.49,82.26,136.17,120.76,205.7
	c9.76,17.66,9.85,40.64,10.85,45.22c-49.38,18.93-91.74,35.88-134.57,51.54c-301.81,109.93-603.41,220.54-905.94,328.49
	c-39.56,14.13-84.06,18.99-126.28,19.05c-21.08,0.07-42.19-20.46-63.3-31.72c1.49-7.55,2.99-15.19,4.46-22.8
	c61.21-25.32,122.26-51.14,183.71-75.87c148.36-59.76,297.88-116.63,445.03-179.2c118.82-50.48,237.36-94.77,369.85-90.82
	c26.03,0.75,54.22-21.3,78.11-37.59c5.16-3.52,0.81-36.7-7.01-40.63c-25.28-12.73-58.58-31.6-81.1-24.28
	c-276.74,89.54-552.22,183.13-827.79,276.31c-66.11,22.33-131.43,47.08-200.07,71.76c-12.78-31.96-20.28-50.6-29.32-73.11
	c305.76-127.66,604.99-257.18,930.69-335.17c6.13-14.7,15.98-38.52,32.78-79.04c-36.03-6.81-68.63-22.86-95.23-15.89
	c-49.8,13.07-95.66,40.62-143.91,60.27c-282.72,114.99-566.09,228.41-848.34,344.56c-191.51,78.76-381.87,160.31-572.15,241.99
	c-211.88,90.94-423.71,182.07-634.37,275.84c-105.61,46.97-209.13,98.79-312.52,150.58c-55.87,27.97-55.94,78.81-27.55,121.6
	c60.33,90.94,121.11,183.37,194.53,263.47c115.19,125.77,271.34,182.42,433.83,218.59c232.17,51.78,449.59,39.58,621.67-155.15
	c75.46-85.38,149.64-164.72,183.88-283.17c55.03-190.28,13.02-359.91-48.55-508.74c18.97-29.56,52.06-65.09,45.85-74.35
	c-20.52-30.74-55.2-51.95-87.87-79.76c72.68-30.72,149.71-63.2,228.42-96.45c8.85,17.01,15.25,27.04,19.56,37.94
	c38.26,96.75,72.57,195.19,115.08,290.01c56.9,126.97,169.44,199.26,281.23,271.49c232.73,150.53,467.57,171.58,697.72,1.3
	c101.91-75.41,213.33-147.65,264.51-272.48c46.21-112.76,90.45-226.87,125.61-343.39c13.89-46.04,9.93-102.44-1.76-150.23
	c-26.59-108.83-63.01-215.25-95.55-323.03C3073.65,686.72,3087.11,685.82,3099.66,688.76z M226.31,1857.76
	c69.76-82.04,994.81-521.33,1117.8-532.24c0.91,4.63,3.46,12.79,2.26,13.36c-349.54,173.35-699.13,346.48-1049.73,517.76
	C278.09,1865.68,251.26,1857.76,226.31,1857.76z M280.81,1960.97c366.25-178.91,729.48-356.35,1097.31-536.07
	c12.99,42.62,22.89,75.18,36.56,119.97c-73.92,29.31-151.55,57.47-227.02,90.48c-224.11,98.08-447.47,197.89-670.81,297.64
	c-40.9,18.28-79.69,41.39-120.88,58.93C356.37,2008.68,314.62,2022.35,280.81,1960.97z M398.56,2115.7
	c-0.62-7.9-1.26-15.83-1.91-23.75c336.4-163.99,660.41-356.86,1029.15-445.64c3.98,6.64,8.04,13.26,12.05,19.88
	c-16.27,11.45-31.28,25.63-49.05,33.9c-151.22,70.24-302.98,139.38-454.5,208.97c-152.95,70.32-305.29,142.03-459.42,209.71
	C453.91,2127.9,424.21,2117.22,398.56,2115.7z M791.34,2275.95c-3.57-7.08-7.18-14.18-10.79-21.32
	c70.24-37.59,140.46-75.12,210.68-112.71c3.46,6.73,6.9,13.55,10.32,20.28C931.48,2200.13,861.41,2238.08,791.34,2275.95z
	 M998.56,2263.36c81.92-39.47,163.8-78.87,245.72-118.27C1188.46,2234.38,1099.22,2257.43,998.56,2263.36z M1445.15,1799.71
	c-19.97,69.78-42.63,138.73-66.35,207.4c-0.79,2.35-17.39-0.76-10.2-0.28c0-33.89,10.38-81.15-2.11-88.25
	c-27.88-15.95-73.77-26.03-100.77-13.55c-135.13,62.38-266.04,133.87-399.49,199.95c-44.36,21.99-92.65,35.94-137.8,56.53
	c-30.82,14.07-59.22,33.36-88.72,50.31c1.99,6,4.02,12.02,6.04,18c-31.43-11.61-62.86-23.21-94.32-34.9
	c-0.56-7.61-1.15-15.28-1.73-22.97c79.95-39.58,159.08-80.92,240.06-118.33c165.36-76.42,331.62-150.87,497.74-225.64
	c38.8-17.47,77.69-35.31,118.13-47.79C1416.36,1776.9,1445.97,1796.71,1445.15,1799.71z M2391.61,1771.2
	c-27.76-5.45-70.01-13.71-112.26-22.03c-0.41-6.04-0.79-12.08-1.2-18.13c65.62-28.92,131.23-57.77,205.67-90.52
	C2451.51,1686.35,2425.5,1723.2,2391.61,1771.2z M2733.99,1559.06c-0.88-8.74-1.79-17.48-2.7-26.2
	c54.01-5.57,108.01-11.15,162.02-16.78c1.09,11.55,2.17,23.12,3.26,34.65C2842.39,1553.48,2788.17,1556.24,2733.99,1559.06z
	 M2977.96,1423.9c-68.7-66.74-130.79-27.15-190.61-6.26c-110.47,38.57-219.54,81.38-328.16,125.05
	c-78.69,31.61-158.14,62.93-232.61,102.97c-57.55,30.95-104.02,29.85-163.33-26.38c318.19-113.7,625.57-223.57,932.95-333.4
	c6.16,6.51,12.34,12.96,18.51,19.45C3003.61,1341.04,2992.55,1376.76,2977.96,1423.9z M3050.49,1204.89
	c-5.16-5.98-10.32-11.96-15.51-17.94c-44.98,13.94-90.16,27.25-134.87,41.98c-116.65,38.35-233.67,75.75-349.42,116.68
	c-67.17,23.8-131.14,56.6-198.4,80.1c-121.49,42.46-244.37,80.98-376.62,124.43c-14.86-15.71-37.03-39.04-68.87-72.54
	c390.02-137.14,745.75-338.04,1160.81-414.97C3060.45,1122.16,3055.47,1163.54,3050.49,1204.89z"/>
</svg>
